<svg id="Camada_1" data-name="Camada 1" xmlns="http://www.w3.org/2000/svg" fill="#ffffff" viewBox="0 0 352.78 491.88">
  <defs>
    <style>
      .cls-1{fill:none;stroke:#ffffff;stroke-miterlimit:10;}
    </style>
  </defs>
  <g id="Logo">
    <polygon class="cls-1" points="33.03 186.45 57.55 91.79 69.53 4.89 55 19.23 33.03 186.45" />
    <polyline class="cls-1" points="77.36 120 48.05 152.11 33.5 184.63" />
    <polyline class="cls-1" points="176.9 151.65 177.16 223.08 154.68 170.3 150.48 192.89 136.7 174.37 143.11 208.91" />
    <polyline class="cls-1" points="69.53 4.89 132.05 72.67 146.13 93.76 122.13 95.42 130.87 142.1 134.06 154.66 96.81 125.94 50.09 164.96 42.78 198.7 10.96 246.81 33.03 186.45 50.09 164.96 92.36 159.95 119.25 168.71 94.12 172.52 70.16 184.5 87.35 198.26 98.46 188.5 123.89 187.56 143.11 208.91 122.53 208.13 98.46 188.5" />
    <polyline class="cls-1" points="176.59 63.08 176.75 109.94 176.9 151.65 154.68 170.3 134.06 154.66 136.7 174.37 119.25 168.71 126.36 148.72 130.57 140.49 162.21 117.7 146.13 93.76 176.59 63.08 144.02 63.48 132.05 72.67 122.13 95.42 96.81 125.94 96.61 68.79 69.53 4.89 74.62 71.16 96.81 125.94 77.36 120 57.55 91.79" />
    <polygon class="cls-1" points="177.16 223.08 148.27 294.68 157.31 306.01 157.35 318.44 167.42 318.4 176.24 326.08 177.16 223.08" />
    <polyline class="cls-1" points="37.93 239.57 53.6 228.23 10.96 246.81 16.95 260.17" />
    <polygon class="cls-1" points="143.11 208.91 150.48 192.89 157.19 272.57 143.11 208.91" />
    <polyline class="cls-1" points="152.89 253.13 148.27 294.68 151.38 265.53 98.46 188.5 128.63 315.54 136.18 330.3 152.29 341.38 176.29 341.3 176.24 326.08" />
    <polyline class="cls-1" points="22.61 270.27 59.27 256.64 69.33 273.54 34.3 303.44 22.61 270.27 1.63 275.2 37.93 239.57 59.27 256.64 86.63 235.26 87.35 198.26 53.6 228.23 42.78 198.7 70.16 184.5 50.09 164.96" />
    <polyline class="cls-1" points="34.12 302.94 35.53 329.58 16.92 318.08" />
    <polygon class="cls-1" points="35.63 355.58 35.53 329.58 52.71 339.38 35.63 355.58" />
    <polygon class="cls-1" points="161.34 356.35 151.33 373.53 154.67 407.8 148.78 438.04 178.1 489.94 176.29 341.3 161.34 356.35" />
    <polyline class="cls-1" points="128.29 314.13 110.77 294.39 88.82 329.39 150.02 431.65 119.92 397.21 141.82 471.06 71.97 402.33 88.82 329.39 85.17 299.99" />
    <polyline class="cls-1" points="129.15 316.56 113.25 329.31 110.77 294.39" />
    <polyline class="cls-1" points="52.71 339.38 85.17 299.99 68.94 344.46 72.85 419.24 52.71 339.38 41.48 332.98 51.03 307.46 110.77 294.39 59.27 256.64 16.92 318.08 17.78 271.41" />
    <line class="cls-1" x1="35.63" y1="355.58" x2="70.42" y2="372.74" />
    <polygon class="cls-1" points="115.91 374.64 113.25 329.31 151.33 373.53 176.89 390.36 154.67 407.8 115.91 374.64" />
    <polygon class="cls-1" points="90.97 391.1 113.69 454.66 101.25 391.06 91.67 334.15 90.97 391.1" />
    <line class="cls-1" x1="119.92" y1="397.21" x2="91.67" y2="334.15" />
    <polyline class="cls-1" points="176.39 308.8 167.42 318.4 160.53 288.28 176.62 283.37" />
    <polyline class="cls-1" points="148.27 294.68 160.53 288.28 157.19 272.57" />
    <line class="cls-1" x1="154.76" y1="243.78" x2="176.77" y2="266.79" />
    <line class="cls-1" x1="162.21" y1="117.7" x2="176.75" y2="107.37" />
    <line class="cls-1" x1="140.41" y1="133.41" x2="176.9" y2="151.65" />
    <polyline class="cls-1" points="98.46 188.5 94.12 172.52 123.89 187.56" />
    <path class="cls-1" d="M193.35,353.48c-.61.32-21.9-11.11-21.9-11.11" transform="translate(-123.19 -168.98)" />
    <polyline class="cls-1" points="80.42 365.77 80.54 400.78 91.98 422.02" />
    <polyline class="cls-1" points="71.97 402.33 80.54 400.78 90.97 391.1" />
    <path class="cls-1" d="M300.92,628.35,272,607s-5.88,32.38-5.88,33" transform="translate(-123.19 -168.98)" />
    <line class="cls-1" x1="177.31" y1="425.08" x2="177.33" y2="459.72" />
  </g>
</svg>
